<svg width="83" height="87" viewBox="0 0 83 87" fill="none" xmlns="http://www.w3.org/2000/svg">
<path d="M46.216 26.5657V37.6082H59.3283C60.3369 37.6082 60.8413 38.3698 60.8413 39.1313L58.824 46.3661C58.824 46.7469 57.8154 47.1276 57.311 47.1276H46.216V74.9244H31.0864V47.5084H22.513C21.5043 47.5084 21 47.1276 21 46.3661V39.1313C21 38.3698 21.5043 37.989 22.513 37.989H31.0864V25.4233C31.0864 18.9501 37.6426 14 46.216 14H59.8326C60.8413 14 61.3456 14.3808 61.3456 15.1423V24.281C61.3456 25.0425 60.8413 25.4233 59.8326 25.4233H47.729C46.7203 25.4233 46.216 25.8041 46.216 26.5657Z" stroke="#17191C" stroke-width="5.71166" stroke-miterlimit="10" stroke-linecap="round"/>
<path d="M52.5011 83.7407H29.6544C10.6155 83.7407 3 75.7012 3 55.6025V31.4841C3 11.3854 10.6155 3.34595 29.6544 3.34595H52.5011C71.5399 3.34595 79.1555 11.3854 79.1555 31.4841V55.6025C79.1555 75.7012 71.5399 83.7407 52.5011 83.7407Z" stroke="#17191C" stroke-width="5.71166" stroke-linecap="round" stroke-linejoin="round"/>
</svg>
