<svg width="77" height="81" viewBox="0 0 77 81" fill="none" xmlns="http://www.w3.org/2000/svg">
<path d="M54.0592 0.345947H22.1342C8.26699 0.345947 0 9.07313 0 23.7123V57.3743C0 72.0536 8.26699 80.7808 22.1342 80.7808H54.0211C67.8884 80.7808 76.1553 72.0536 76.1553 57.4145V23.7123C76.1934 9.07313 67.9265 0.345947 54.0592 0.345947ZM38.0967 56.1677C29.944 56.1677 23.3152 49.1699 23.3152 40.5634C23.3152 31.9568 29.944 24.959 38.0967 24.959C46.2494 24.959 52.8782 31.9568 52.8782 40.5634C52.8782 49.1699 46.2494 56.1677 38.0967 56.1677ZM60.65 19.9721C60.4595 20.4547 60.1928 20.8971 59.8499 21.2992C59.469 21.6612 59.0499 21.9427 58.5928 22.1438C58.1356 22.3449 57.6403 22.4655 57.1451 22.4655C56.1165 22.4655 55.1641 22.0634 54.4402 21.2992C54.0973 20.8971 53.8307 20.4547 53.6402 19.9721C53.4497 19.4894 53.3354 18.9666 53.3354 18.4438C53.3354 17.921 53.4497 17.3981 53.6402 16.9155C53.8307 16.3927 54.0973 15.9905 54.4402 15.5884C55.3164 14.6633 56.6498 14.221 57.8689 14.5025C58.1356 14.5427 58.3642 14.6231 58.5928 14.7438C58.8213 14.8242 59.0499 14.9449 59.2785 15.1057C59.469 15.2264 59.6595 15.4275 59.8499 15.5884C60.1928 15.9905 60.4595 16.3927 60.65 16.9155C60.8405 17.3981 60.9548 17.921 60.9548 18.4438C60.9548 18.9666 60.8405 19.4894 60.65 19.9721Z" fill="#292D32"/>
</svg>
