<svg width="77" height="81" viewBox="0 0 77 81" fill="none" xmlns="http://www.w3.org/2000/svg">
<path d="M57.4892 80.8906C53.4792 80.8906 49.2562 79.8791 44.8913 77.931C40.6328 76.0204 36.3389 73.398 32.1514 70.2137C27.9994 66.9919 23.9893 63.3955 20.1922 59.462C16.4306 55.4535 13.0238 51.2202 10.0074 46.8745C6.95549 42.379 4.50687 37.8835 2.768 33.5378C0.922666 28.8925 0 24.3969 0 20.1637C0 17.2416 0.49682 14.4694 1.45497 11.8844C2.44862 9.22459 4.04554 6.75205 6.21026 4.61669C8.94277 1.76953 12.0656 0.345947 15.4014 0.345947C16.7854 0.345947 18.2049 0.683111 19.4115 1.28251C20.7955 1.95684 21.9666 2.96833 22.8183 4.31698L31.0513 16.5673C31.7965 17.6537 32.3643 18.7026 32.7547 19.7516C33.216 20.8755 33.4644 21.9993 33.4644 23.0858C33.4644 24.5093 33.074 25.8955 32.3288 27.2066C31.7965 28.2181 30.9803 29.3046 29.9512 30.391L27.538 33.0508C27.5735 33.1632 27.609 33.2381 27.6445 33.313C28.0704 34.0998 28.922 35.4484 30.5545 37.4714C32.2933 39.5693 33.9257 41.4799 35.5582 43.2406C37.6519 45.4135 39.3908 47.1368 41.0232 48.5603C43.0459 50.3585 44.359 51.2576 45.1397 51.6697L45.0687 51.857L47.6593 49.1597C48.7594 47.9984 49.824 47.1368 50.8531 46.5748C52.8049 45.3011 55.289 45.0763 57.7731 46.1627C58.6958 46.5748 59.6894 47.1367 60.754 47.9235L72.5358 56.7646C73.8488 57.7012 74.807 58.9 75.3748 60.3236C75.9071 61.7472 76.1555 63.0584 76.1555 64.3696C76.1555 66.1678 75.7651 67.966 75.0199 69.6518C74.2747 71.3376 73.352 72.7986 72.1809 74.1473C70.1581 76.5074 67.9579 78.1933 65.4029 79.2797C62.9543 80.3286 60.2927 80.8906 57.4892 80.8906ZM15.4014 5.96534C13.4496 5.96534 11.6398 6.86444 9.90092 8.66265C8.26851 10.2735 7.13292 12.0343 6.42318 13.9449C5.67795 15.8929 5.32308 17.9534 5.32308 20.1637C5.32308 23.6477 6.10379 27.4314 7.66523 31.3275C9.26215 35.2986 11.4978 39.4195 14.3368 43.5403C17.1758 47.6612 20.4051 51.6697 23.9538 55.4535C27.5026 59.1623 31.3352 62.6088 35.2743 65.6433C39.1069 68.6028 43.0459 71.0004 46.9495 72.7237C53.0178 75.4585 58.6958 76.0954 63.3801 74.0349C65.1899 73.2482 66.7869 72.0494 68.2418 70.3261C69.058 69.3895 69.6968 68.3781 70.2291 67.1793C70.655 66.2427 70.8679 65.2687 70.8679 64.2946C70.8679 63.6952 70.7614 63.0958 70.4775 62.4215C70.3711 62.1967 70.1581 61.7846 69.4839 61.2976L57.7021 52.4564C56.9924 51.932 56.3536 51.5573 55.7503 51.2951C54.9696 50.9579 54.6502 50.6208 53.4437 51.4075C52.7339 51.7821 52.0952 52.3441 51.3854 53.0933L48.6884 55.903C47.3044 57.3266 45.1752 57.6637 43.5428 57.0269L42.5846 56.5773C41.1296 55.7532 39.4263 54.4794 37.5454 52.7936C35.842 51.2576 33.9967 49.4594 31.761 47.1367C30.0222 45.2636 28.2833 43.2781 26.4734 41.0678C24.8055 39.0074 23.599 37.2466 22.8537 35.7856L22.4279 34.6617C22.215 33.8001 22.144 33.313 22.144 32.7886C22.144 31.4399 22.6053 30.2411 23.4925 29.3045L26.154 26.3825C26.8638 25.6332 27.3961 24.9214 27.751 24.2846C28.0349 23.7975 28.1413 23.3855 28.1413 23.0108C28.1413 22.7111 28.0349 22.2616 27.8574 21.812C27.609 21.2126 27.2187 20.5383 26.7218 19.8265L18.4888 7.53877C18.1339 7.01429 17.7081 6.63967 17.1758 6.37743C16.608 6.11519 16.0047 5.96534 15.4014 5.96534ZM45.0687 51.8945L44.5009 54.442L45.4591 51.8196C45.2816 51.7821 45.1397 51.8196 45.0687 51.8945Z" fill="#292D32"/>
</svg>
