<svg width="77" height="81" viewBox="0 0 77 81" fill="none" xmlns="http://www.w3.org/2000/svg">
<path d="M76.0928 38.1684C74.7984 14.8571 54.734 -3.10877 31.6239 0.910446C15.7094 3.6837 2.95503 17.3088 0.480297 34.1089C-0.966468 43.8354 0.937246 53.0394 5.08718 60.6358L1.69866 73.9393C0.937208 76.9538 3.56415 79.6868 6.38154 78.8428L18.7933 75.2255C24.4281 78.7222 31.0147 80.7318 38.0582 80.7318C59.5312 80.7318 77.3493 60.7563 76.0928 38.1684ZM56.6757 55.4912C56.3331 56.2146 55.9143 56.8979 55.3813 57.541C54.4294 58.6261 53.4015 59.43 52.2593 59.9123C51.1171 60.4348 49.8607 60.6759 48.5282 60.6759C46.5864 60.6759 44.4924 60.194 42.3223 59.1892C40.1141 58.1844 37.9439 56.8577 35.7738 55.2098C33.5656 53.5217 31.5096 51.6327 29.5299 49.5829C27.5501 47.4929 25.7986 45.2824 24.1996 42.9914C22.6386 40.7005 21.3822 38.4095 20.4685 36.1186C19.5548 33.8276 19.098 31.6172 19.098 29.5272C19.098 28.1607 19.3264 26.8343 19.7832 25.6286C20.2401 24.3826 20.9636 23.2573 21.9915 22.2525C23.2099 20.9663 24.5423 20.3634 25.951 20.3634C26.484 20.3634 27.0169 20.484 27.5119 20.7251C28.0068 20.9663 28.4638 21.328 28.8065 21.8505L33.2229 28.442C33.5656 28.9645 33.8321 29.4066 33.9844 29.8487C34.1747 30.2908 34.2509 30.6927 34.2509 31.0947C34.2509 31.577 34.0986 32.0593 33.8321 32.5415C33.5656 33.0238 33.2229 33.5061 32.766 33.9884L31.3193 35.5961C31.0908 35.8372 31.0147 36.0784 31.0147 36.3999C31.0147 36.5607 31.0528 36.7214 31.0908 36.8822C31.167 37.043 31.2051 37.1635 31.2431 37.2841C31.5858 37.9674 32.1949 38.8114 33.0325 39.8564C33.9082 40.9014 34.822 41.9866 35.8119 43.0316C36.8398 44.1168 37.8297 45.0814 38.8577 46.0058C39.8476 46.89 40.6852 47.4929 41.3324 47.8547C41.4466 47.8948 41.5608 47.9752 41.6751 48.0154C41.8274 48.0958 41.9796 48.0958 42.17 48.0958C42.5127 48.0958 42.7411 47.9752 42.9695 47.7341L44.4163 46.2068C44.9113 45.6843 45.3681 45.3225 45.7869 45.0814C46.2438 44.8001 46.6626 44.6393 47.1575 44.6393C47.5383 44.6393 47.919 44.7197 48.3378 44.9206C48.7566 45.1216 49.2135 45.3627 49.6703 45.7245L55.9904 50.4671C56.4854 50.8289 56.828 51.271 57.0565 51.7533C57.2468 52.2758 57.361 52.7581 57.361 53.3208C57.1326 54.0041 56.9803 54.7677 56.6757 55.4912Z" fill="black"/>
</svg>
